<svg display="none"
   xmlns="http://www.w3.org/2000/svg">
   <symbol id="book" viewBox="0 0 70 54">
      <g>
         <path d="M63.5585 38.1885V6.87282C67.438 6.70355 68.7312 8.77716 68.8929 9.83512C68.9737 20.8379 69.0869 43.6476 68.8929 46.8638C68.6989 50.08 65.7407 50.4609 64.2859 50.2493C57.1733 50.2493 42.3662 50.2493 40.0384 50.2493C37.7107 50.2493 35.6739 52.0831 34.9464 53C33.2006 50.6302 30.3394 50.1788 29.1271 50.2493C22.7419 50.0377 9.09865 49.7415 5.60702 50.2493C2.11538 50.7571 1.08082 48.2039 1 46.8638V9.83512C1 7.29601 4.71794 6.80229 6.57692 6.87282M63.5585 38.1885H40.0384C38.3411 38.4001 34.9464 39.3734 34.9464 41.574C34.3807 40.4455 32.6187 38.1885 30.097 38.1885C27.5752 38.1885 13.3662 38.1885 6.57692 38.1885M63.5585 38.1885C63.5585 38.8233 63.5585 40.3045 63.5585 41.574C63.5585 43.1799 62.831 44.7479 61.6187 44.7479C55.0718 44.7479 41.7357 44.7479 40.0384 44.7479C38.1279 44.7479 35.9163 45.8764 34.9464 46.8638M6.57692 38.1885V6.87282M6.57692 38.1885C6.57692 38.7528 6.57692 40.3045 6.57692 41.9972C6.57692 43.6899 8.67836 44.5363 9.72909 44.7479C15.4677 44.889 27.5752 45.0864 30.097 44.7479C32.6187 44.4093 34.3807 46.0174 34.9464 46.8638M6.57692 6.87282C6.17279 5.18008 6.62541 1.83692 11.6689 2.00619C16.7124 2.17547 24.6009 2.07672 27.9147 2.00619C29.7737 2.28831 33.7826 3.65661 34.9464 6.87282V46.8638" stroke="black"/>
         <path d="M64 6.82354V4.451C64 3.66015 63.478 2.03531 61.3898 1.86276C59.3017 1.69021 56.2486 1.79087 54.9831 1.86276M54.9831 1.86276V12L50.7119 9.84314L46.2034 12V1.86276M54.9831 1.86276V1H46.2034V1.86276M46.2034 1.86276L42.6441 1.86275C41.6949 2.07842 39.9943 2.76146 38.8475 3.80392C37.8983 4.66667 36.4746 5.96078 36 6.60784" stroke="black"/>
         <path d="M24.6907 19.2123C24.6907 19.2123 22.1514 18.9834 20.7232 19.4881C19.24 20.0122 18.4096 20.5786 17.5869 21.811C17.065 22.5927 16.8575 23.1155 16.7364 24.0409C16.6071 25.0294 16.629 25.6564 17.038 26.6078C17.4291 27.5179 17.8305 28.0153 18.6519 28.6568C19.4391 29.2715 20.019 29.4866 20.9962 29.7635C22.2856 30.1288 23.1058 30.1611 24.4028 29.9583C25.6492 29.7635 26.3511 29.4923 27.3565 28.8247C28.4516 28.0975 29.5002 26.5388 29.5567 26.3816C29.6019 26.2559 29.5338 26.2636 29.4942 26.2832" stroke="#4893AB"/>
         <path d="M29.4843 26.1577C28.6187 26.862 26.384 28.2117 24.3697 27.9764C23.5004 27.9998 21.5452 27.7054 20.6784 26.3407C19.8117 24.9761 19.7742 23.7358 19.8638 23.2862C19.9628 22.6827 20.5334 21.4601 21.4763 20.7627C21.9685 20.3987 23.0648 19.4672 24.7201 19.1627" stroke="#4893AB"/>
         <path d="M17.0032 27.927C4.59928 37.9537 41.2409 18.0289 21.7356 25.5928" stroke="#4893AB"/>
         <path d="M9.8 21.75H9L9.6 22.25L9.4 23L10 22.5L10.6 23L10.4 22.25L11 21.75H10.2L10 21L9.8 21.75Z" stroke="#4893AB" stroke-width="0.5"/>
         <path d="M31.4 17.375H31L31.3 17.625L31.2 18L31.5 17.75L31.8 18L31.7 17.625L32 17.375H31.6L31.5 17L31.4 17.375Z" stroke="#4893AB" stroke-width="0.3"/>
         <path d="M20.2 10.875H19L19.9 12.125L19.6 14L20.5 12.75L21.4 14L21.1 12.125L22 10.875H20.8L20.5 9L20.2 10.875Z" stroke="#4893AB" stroke-width="0.5"/>
      </g>
   </symbol>
   <symbol id="clock" viewBox="0 0 48 71">
      <g>
         <path d="M1.01132 3.5C1.16987 5.19231 2.53076 5.8718 3.19139 6H43.6217C44.4145 5.80769 46 5.03846 46 3.5C46 1.96154 44.4145 1.19231 43.6217 1H3.19139C2.39864 1.12821 0.852772 1.80769 1.01132 3.5Z" stroke="black"/>
         <path d="M2.01132 67C2.16987 69.0308 3.53076 69.8462 4.19139 70H44.6217C45.4145 69.7692 47 68.8462 47 67C47 65.1538 45.4145 64.2308 44.6217 64H4.19139C3.39864 64.1538 1.85277 64.9692 2.01132 67Z" stroke="black"/>
         <path d="M10.997 17.8404C9.91687 18.3339 10.1612 19.1428 10.4184 19.4856C11.5756 19.4856 11.9614 20.1025 12.3471 20.7195L12.3471 20.7195C12.7329 21.3365 12.3471 22.5705 12.3471 23.1874C12.3471 23.8044 16.0118 26.8892 16.5905 27.3006C17.1691 27.7119 22.9555 31.6194 22.9555 32.6476V37.7891C22.9555 39.1053 20.7695 42.1764 19.6765 43.5475C16.7833 47.4549 16.9762 46.6323 13.5044 49.7172C10.0326 52.802 10.997 53.0077 10.4184 53.6246C9.95545 54.1182 9.96832 58.0805 10.0326 60H38V58.7661C38 55.1465 35.814 51.6366 34.7211 50.3341L25.8487 43.5475C24.7685 40.4215 24.4985 34.9784 24.4985 32.6476C24.4985 31.4351 26.0671 30.6125 27.1988 29.9741C29.1276 28.5345 32.2136 26.2723 33.5638 25.244C34.6439 24.4214 36.9713 21.0623 38 19.4856C37.4214 18.663 34.1424 17.8404 33.178 17.8404C32.4065 17.8404 30.7992 14.4127 30.092 12.6989C28.7033 10.2311 24.7557 10.9851 22.9555 11.6707C22.3768 11.0537 16.2047 15.1668 15.6261 15.7838C15.0475 16.4008 12.3471 17.2234 10.997 17.8404Z" stroke="black"/>
         <path d="M40.8523 8H6.95304C2.62037 20.7343 14.1073 29.9627 20.3924 32.9851C21.9971 33.791 21.061 36.4104 20.3924 37.6194C9.64088 44.6329 8.1279 48.5 7.5548 49.5075C5.62916 52.8925 6.35127 59.2463 6.95304 62H40.8523C42.457 57.9701 42.3063 51.9254 40.8523 49.5075C35.8376 41.4478 29.2182 39.8358 27.4129 37.6194C25.9687 35.8463 26.8112 33.791 27.4129 32.9851C42.818 25.2478 42.7913 13.1045 40.8523 8Z" stroke="black"/>
         <path d="M22.1777 19.1582L22.9746 19.2055L22.4003 18.7679L22.6347 18.1766L22.0136 18.5433L21.4394 18.1057L21.6035 18.7207L20.9825 19.0873L21.7793 19.1346L21.9434 19.7495L22.1777 19.1582Z" stroke="#4893AB" stroke-width="0.5"/>
         <path d="M27.4 25.375H27L27.3 25.625L27.2 26L27.5 25.75L27.8 26L27.7 25.625L28 25.375H27.6L27.5 25L27.4 25.375Z" stroke="#4893AB" stroke-width="0.5"/>
         <path d="M28.2 17.5H27L27.9 18.5L27.6 20L28.5 19L29.4 20L29.1 18.5L30 17.5H28.8L28.5 16L28.2 17.5Z" stroke="#4893AB" stroke-width="0.5"/>
         <path d="M19.6 21.5H18L19.2 22.5L18.8 24L20 23L21.2 24L20.8 22.5L22 21.5H20.4L20 20L19.6 21.5Z" stroke="#4893AB" stroke-width="0.5"/>
         <path d="M21.8 27.375H21L21.6 27.625L21.4 28L22 27.75L22.6 28L22.4 27.625L23 27.375H22.2L22 27L21.8 27.375Z" stroke="#4893AB" stroke-width="0.5"/>
         <path d="M23.4898 55.891L23.0587 55.213L23.0461 55.9391L22.4345 56.0959L23.0938 56.3868L23.0812 57.1128L23.4773 56.617L24.1365 56.9079L23.7054 56.23L24.1014 55.7342L23.4898 55.891Z" stroke="#4893AB" stroke-width="0.5"/>
         <path d="M29.6313 52.9644L28.9415 51.8797L28.8711 53.0739L27.8169 53.3738L28.9221 53.8066L28.8516 55.0009L29.5609 54.1587L30.6661 54.5915L29.9763 53.5068L30.6855 52.6645L29.6313 52.9644Z" stroke="#4893AB" stroke-width="0.5"/>
         <path d="M22.9891 48.1457L21.9913 46.5345L21.5608 48.476L20.147 48.7696L21.7918 49.354L21.3927 51.3679L22.6818 50.2387L24.2782 51.0713L23.3882 49.1526L24.7851 47.743L22.9891 48.1457Z" stroke="#4893AB" stroke-width="0.5"/>
         <path d="M19.8697 53.9281L19.4386 53.2502L19.426 53.9762L18.8144 54.133L19.4736 54.4239L19.4611 55.1499L19.8571 54.6541L20.5164 54.945L20.0852 54.2671L20.4813 53.7713L19.8697 53.9281Z" stroke="#4893AB" stroke-width="0.5"/>
      </g>
   </symbol>
   <symbol id="computer" viewBox="0 0 58 64">
      <g>
         <path d="M19.6822 15.3784H5.29278C3.7692 15.3153 0.789755 16.0973 1.06061 19.7297C1.33147 23.3622 1.17347 41.9279 1.06061 50.7568M19.6822 15.3784V1H43.8902M19.6822 15.3784V46.4054H53.0316V15.3784M43.8902 1V10.8378H53.0316M43.8902 1L53.0316 10.8378M53.0316 10.8378V15.3784M1.06061 50.7568C0.778466 53.3423 1.3141 57 6.30849 57C11.0485 57 39.3194 57 53.0316 57C54.2731 56.9369 56.7898 55.9405 56.9252 52.4595C57.0606 48.9784 56.9816 49.8739 56.9252 50.7568M1.06061 50.7568H56.9252M56.9252 50.7568V19.7297C57.0381 18.2793 56.4174 15.3784 53.0316 15.3784" stroke="black"/>
         <path d="M16.7447 57V63H41.0851M41.0851 63V57M41.0851 63H45H13" stroke="black"/>
         <path d="M6 22H14M6 24.9333H14M6 28.05H12.1667M6 31.35H14M6 34.2833H10.8333M6 41.0667H12.1667M6 44H14" stroke="#4893AB"/>
         <ellipse cx="38" cy="27.5" rx="7" ry="7.5" fill="#4893AB"/>
         <path d="M31.0211 26C6.2349 27.8806 67.4528 37.2986 44.9216 27.8806" stroke="#53AAC6"/>
      </g>
   </symbol>
</svg>